<?xml version="1.0" standalone="no"?>
<!DOCTYPE svg PUBLIC "-//W3C//DTD SVG 1.1//EN" "http://www.w3.org/Graphics/SVG/1.1/DTD/svg11.dtd">
<svg xmlns="http://www.w3.org/2000/svg">
<metadata>Copyright (C) 2019 by original authors @ fontello.com</metadata>
<defs>
<font id="ldr-ofer-michael" horiz-adv-x="1000" >
<font-face font-family="ldr-ofer-michael" font-weight="400" font-stretch="normal" units-per-em="1000" ascent="850" descent="-150" />
<missing-glyph horiz-adv-x="1000" />
<glyph glyph-name="ld+r-michael's-x" unicode="&#x2b;" d="M760 808l196-196-279-271 196-199c24-24 35-47 35-84 0-70-57-127-127-127-34 0-52 5-75 27l-201 202-267-268-196 196 267 268-218 219c-2 2-5 5-7 7-19 20-24 38-24 70 0 70 57 127 127 127 37 0 69-8 92-33l208-212 273 274z" horiz-adv-x="1000" />

<glyph glyph-name="ld+r-michael's-plus" unicode="&#x58;" d="M608 239l0-317-219 0 0 318-1 10-10 0-267 1 0 0-9 0c-11 0-18 2-26 5-7 4-14 10-24 20-39 39-39 102 0 141 21 21 43 33 69 32l0 0 0 0 257-2 10 0 0 11 0 324 219 0 1-327 0-10 10 0 236-2 1 0 0 0c13 0 24-1 35-5 10-4 19-11 30-21 39-39 39-103 0-141-10-11-18-17-26-21-8-3-17-5-29-5 0 0 0 0-1 0l-246 0-10 0 0-11z" horiz-adv-x="1000" />

<glyph glyph-name="ld+r-michael's-other-x" unicode="&#x78;" d="M958 90l-196-196-276 275-194-192c-24-24-47-35-84-35-70 0-127 57-127 127 0 34 5 52 27 75l202 201-268 267 196 196 268-267 219 218c2 2 5 5 7 7 20 19 38 24 70 24 70 0 127-57 127-127 0-37-8-69-33-92l-212-208 274-273z" horiz-adv-x="1000" />

<glyph glyph-name="ld+r-michael's-hook" unicode="&#xe800;" d="M463 360h-5v105c4 0 7 0 11 0 3 0 7 0 10 0v-43c-3 0-7 0-10-1l-9-1 0-9 0-19c0-13 1-23 3-32z m6 125c-4 0-7 1-11 1v145c4 0 7 0 11 0 3 0 7 0 10 0v-145c-3 0-7-1-10-1z m-31 139v-132c-25 12-42 37-42 66 0 29 17 55 42 66z m31 28c-4 0-7 0-11 0v125h21v-125c-3 0-7 0-10 0z m31-160v132c25-11 42-37 42-66 0-29-17-54-42-66z m-240-329c0 5 1 10 1 16 11 55 48 99 97 112-16-25-25-55-25-87 0-85 65-156 146-156 81 0 146 71 146 156 0 78-54 144-125 155v43c132 0 240-107 240-239 0-133-108-240-240-240-132 0-240 107-240 240z" horiz-adv-x="1000" />

<glyph glyph-name="ld+r-michael's-killing-star" unicode="&#xe801;" d="M500 816l102-315 3-7h7 332l-268-195-7-4 3-7 102-315-268 194-6 5-6-5-268-194 102 315 3 7-6 4-268 195h331 7l3 7 102 315z" horiz-adv-x="1000" />

<glyph glyph-name="ld+r-michael's-ld+r-u" unicode="&#xe802;" d="M746 558l-9-4 3-10c4-11 9-22 13-33 16-45 31-85 39-129 10-54 10-114-10-196-21-82-55-133-102-165-47-32-107-44-180-46-130 4-247 89-271 200-25 115-3 218 31 371l2 8-8 4-94 37 64 137 211-96c-44-144-73-246-60-381 4-37 21-64 46-82 24-18 55-25 85-25 60 2 124 38 129 107 10 116-19 213-60 348-4 11-7 22-10 33l231 96 45-136-95-38z" horiz-adv-x="1000" />

<glyph glyph-name="ld+r-michael's-mute" unicode="&#xe803;" d="M683 130l-6-3v-6-104c0-31-17-59-47-80-30-21-73-35-120-35-47 0-89 14-119 35-30 21-47 49-47 80v104 6l-6 3c-120 61-203 183-203 324 0 201 168 365 375 365 208 0 375-164 375-365 0-141-82-263-202-324z m-16 85c63 0 114 51 114 114 0 64-51 115-114 115-64 0-115-51-115-115 0-63 51-114 115-114z m-313 0c63 0 115 51 115 114 0 64-52 115-115 115-63 0-114-51-114-115 0-63 51-114 114-114z" horiz-adv-x="1000" />

<glyph glyph-name="ld+r-michael's-mystery-box" unicode="&#xe804;" d="M136 653c-6 55 38 103 93 103h562c55 0 98-48 93-103l-8-75c0-5-5-9-10-9h-169l-5 29c-4 28-31 48-59 43l-275-42c-18-3-32-15-39-30h-165c-6 0-10 4-11 9l-7 75z m65-126h116l39-254c4-29 31-48 59-44l275 42c28 5 48 31 43 60l-30 196h116c19 0 33-15 32-33l-36-500c-1-17-15-29-31-29h-547c-16 0-30 12-31 28l-37 501c-1 18 13 33 32 33z" horiz-adv-x="1000" />

<glyph glyph-name="ld+r-michael's-parts" unicode="&#xe806;" d="M150 392l1 1 1 1 244 282v-278-11h10 209 10v11 278l244-282 1-1 1-1c47-39 77-97 77-161 0-118-100-214-223-214-92 0-171 53-205 128l-10 21-9-21c-34-75-113-128-205-128-123 0-223 96-223 214 0 64 30 122 77 161z m257-25h-9l-1-10c-1-3-1-7-1-11 0-59 52-104 114-104 63 0 115 45 115 104 0 4 0 8-1 11l-1 10h-9-207z" horiz-adv-x="1000" />

<glyph glyph-name="ld+r-michael's-sadomazofembotochist" unicode="&#xe808;" d="M208 485h-10v-10-104c0-75 61-136 135-136h105 10v11 104c0 75-61 135-135 135h-105z m594-10v10h-10-104c-75 0-136-60-136-135v-104-11h11 104c75 0 135 61 135 136v104z m-318-442l3-6 6 0c3 0 5 0 7 0 2 0 5 0 7 0l7 0 2 6c10 21 32 36 57 36 34 0 62-28 62-63 0-25-14-46-36-56l0-1-1 0c-20-15-56-26-98-26-42 0-78 11-98 26l0 0-1 1c-22 10-36 31-36 56 0 35 28 63 62 63 25 0 47-15 57-36z m401 286c0-59-9-115-26-167h-718c-17 52-26 108-26 167 0 255 174 458 385 458 211 0 385-203 385-458z" horiz-adv-x="1000" />

<glyph glyph-name="ld+r-michael's-screamer" unicode="&#xe809;" d="M667 152h-11v-10-125c0-64-51-115-114-115h-104c-64 0-115 51-115 115v125 10h-10-21c-64 0-115 51-115 115v229c0 178 145 323 323 323 178 0 323-145 323-323v-188c0-86-70-156-156-156z m-11 146c58 0 104 47 104 104 0 58-46 104-104 104-57 0-104-46-104-104 0-57 47-104 104-104z m-312 0c57 0 104 47 104 104 0 58-47 104-104 104-58 0-104-46-104-104 0-57 46-104 104-104z m250-125c0 57-47 104-104 104-58 0-105-47-105-104v-63c0-57 47-104 105-104 57 0 104 47 104 104v63z" horiz-adv-x="1000" />

<glyph glyph-name="ld+r-michael's-slim-jim" unicode="&#xe80a;" d="M649 95h-11v-10-38h-255v38 10h-11-101c-63 0-115 51-115 115v348c0 133 108 240 240 240h229c132 0 240-107 240-240v-348c0-64-52-115-115-115h-101z m-302 124c61 0 111 47 111 107 0 59-50 107-111 107-61 0-111-48-111-107 0-60 50-107 111-107z m327 0c61 0 111 47 111 107 0 59-50 107-111 107-61 0-111-48-111-107 0-60 50-107 111-107z m-291-217h255c0-53-55-100-128-100-72 0-127 47-127 100z" horiz-adv-x="1000" />

<glyph glyph-name="ld+r-michael's-toast-robot" unicode="&#xe80b;" d="M406 163v-11h11 166 11v11 20 11h-11-166-11v-11-20z m-312 354c0 132 107 239 239 239h334c132 0 239-107 239-239v-417c0-86-70-156-156-156h-500c-86 0-156 70-156 156v417z m635-219c52 0 94 42 94 94 0 51-42 93-94 93-52 0-94-42-94-93 0-52 42-94 94-94z m-458 0c52 0 94 42 94 94 0 51-42 93-94 93-52 0-94-42-94-93 0-52 42-94 94-94z" horiz-adv-x="1000" />

<glyph glyph-name="ld+r-michael's-under-a-killing-moon" unicode="&#xe80c;" d="M841 97c-29-7-60-12-91-12-207 0-375 178-375 396 0 102 36 195 96 265-185-33-325-195-325-390 0-218 177-396 396-396 119 0 226 53 299 137z m0 0l16-13 44 50-65-17 5-20z m-370 649l16-14 38 45-58-11 4-20z m365-629c-28-7-56-11-86-11v-41c33 0 65 4 96 12l-10 40z m-86-11c-195 0-354 167-354 375h-42c0-229 176-416 396-416v41z m-354 375c0 97 34 185 91 251l-32 27c-63-73-101-171-101-278h42z m-229-125c0 185 133 338 308 369l-8 41c-194-35-342-205-342-410h42z m375-375c-207 0-375 168-375 375h-42c0-230 187-416 417-416v41z m283 130c-69-80-170-130-283-130v-41c126 0 238 55 315 144l-32 27z" horiz-adv-x="1000" />

<glyph glyph-name="ld+r-michael's-werewolf-tags" unicode="&#xe80d;" d="M479 633c13 0 24 7 29 18 45 1 91-14 129-45l6 6-6-6 12-10c84-70 96-195 26-279l-143-173c-70-84-195-96-279-26l-12 10c-84 70-96 195-26 279l-8 6 8-6 144 173-8 6 8-6c26 31 60 53 97 63 6-6 14-10 23-10z m-11 31l-2 4-4-2c-2 2-4 5-4 8 0 6 5 11 11 11 6 0 10-5 10-11 0-5-4-10-10-10-1 0-1 0-1 0z m286-614c-74-44-164-35-227 16 19 12 36 27 51 45l143 173c37 43 53 97 50 150l64-105c56-93 26-215-68-271l-13-8z m-369 739c0-6-4-10-10-10-6 0-10 4-10 10 0 6 4 10 10 10 6 0 10-4 10-10z m42-62c0-6-5-11-10-11-6 0-11 5-11 11 0 5 5 10 11 10 5 0 10-5 10-10z m156-250c35 0 63 28 63 62 0 35-28 63-63 63-12 0-23-4-32-10 1 3 1 6 1 10 0 17-14 31-31 31-17 0-31-14-31-31 0-18 14-32 31-32 3 0 6 1 9 2-6-10-9-21-9-33 0-34 28-62 62-62z m-10 83c0-6-5-11-10-11-6 0-11 5-11 11 0 6 5 10 11 10 5 0 10-4 10-10z m83 83c0-6-4-10-10-10-6 0-11 4-11 10 0 6 5 11 11 11 6 0 10-5 10-11z m42 63c0-6-5-11-10-11-6 0-11 5-11 11 0 5 5 10 11 10 5 0 10-5 10-10z m42 62c0-6-5-10-11-10-6 0-10 4-10 10 0 6 4 11 10 11 6 0 11-5 11-11z" horiz-adv-x="1000" />

<glyph glyph-name="ld+r-ofer's-bloody-robot" unicode="&#xe80f;" d="M264-44c-2 1-3 2-6 3-1 7-2 19-2 41l0 10-11 0-20 0-10 0v-11-131c-1 0-1 1-2 1-3 3-8 10-8 29 0 20 2 36 3 48l0 0c1 8 2 16 2 22-1 6-2 13-8 19-4 4-9 5-13 5-4 0-8-1-10-1l-1 0c-6-2-10-2-13-1-2 1-6 3-9 15l-2 5-6 2c-31 7-54 35-54 68v760h759c39 0 71-32 71-71v-689c0-38-32-70-71-70l-567 0h-11v-11-88c0 12-1 21-3 28-1 5-3 9-4 12-1 2-3 4-4 5z m32 519c56 0 102 46 102 102 0 56-46 101-102 101-56 0-102-45-102-101 0-56 46-102 102-102z m405 0c56 0 102 46 102 102 0 56-46 101-102 101-56 0-101-45-101-101 0-56 45-102 101-102z" horiz-adv-x="1000" />

<glyph glyph-name="ld+r-ofer's-eye" unicode="&#xe810;" d="M147 183c-46 71-104 144-133 177 29 34 87 107 133 178 68 104 204 197 348 197h10c144 0 280-93 348-197 46-71 104-144 133-178-29-33-87-106-133-177-68-104-204-198-348-198h-10c-144 0-280 94-348 198z m358-141c175 0 317 138 317 309 0 171-142 309-317 309-175 0-317-138-317-309 0-171 142-309 317-309z m138 309c0-74-61-134-138-134-77 0-138 60-138 134 0 74 61 134 138 134 77 0 138-60 138-134z" horiz-adv-x="1000" />

<glyph glyph-name="ld+r-ofer's-pet-snake" unicode="&#xe811;" d="M474-85c22-5 44-7 64-3 15 3 29 10 39 21 10 11 16 27 16 46 0 14-5 25-15 33-8 7-20 11-32 13-18 4-40 5-63 6-8 0-16 0-24 1-31 1-60 5-81 17-10 5-18 12-24 22-5 10-9 23-9 40 0 42 12 64 28 75 16 12 40 14 68 11 29-4 60-13 89-23 3-1 5-1 8-2 26-8 51-16 69-18 22-3 41 4 50 18 5 7 7 15 6 24-2 9-6 17-14 24-14 14-40 24-79 28-38 3-90-1-159-16-57-7-96 10-119 36-24 27-34 66-31 104 3 39 19 75 44 98 25 23 60 33 104 18 48-17 84-27 110-31 13-3 24-4 32-4 9 0 16 1 21 3 3 1 6 3 8 6 3 3 4 6 4 10-1 7-5 12-9 16-8 7-22 14-39 19-29 9-46 28-57 50-9 15-14 32-18 46-2 6-4 12-6 17l-8 24-3-7c-1 2-2 5-3 7-2 8-4 17-6 25-1 8-1 13-1 15l1 2v1c0 34 12 61 27 80 8 10 16 18 23 23 7 4 12 7 15 8 0 0 1-1 2-1 2-2 5-4 8-8 7-6 14-16 21-28 15-23 26-52 26-74 0-24-4-39-9-48-5-10-10-12-11-13l-9-2 1-9c4-26 17-42 34-53 13-8 28-14 42-19 4-1 7-3 11-4 17-7 31-14 40-26 9-11 15-28 11-57-3-18-9-30-17-39-9-8-20-13-34-17-29-6-67-2-106 4-6 1-11 1-17 2-33 5-65 10-91 8-15-1-29-5-40-13-11-9-17-23-17-40 0-8 3-15 8-21 4-5 11-9 18-10 13-4 31-3 51-1 18 2 39 6 61 10 2 1 4 1 6 1 24 5 50 9 76 12 51 7 100 7 136-11 18-9 33-21 43-40 10-19 16-45 16-79 0-65-20-100-48-117-29-18-70-21-112-15-35 4-71 13-101 20-6 2-12 3-18 5-17 4-32 7-43 8-6 0-12 0-17-2-5-2-10-6-12-13-1-5 0-10 3-14 3-4 7-7 10-8 7-3 17-5 27-6 8-2 17-3 27-3 2-1 5-1 8-1 12-2 26-3 39-5 27-5 53-12 72-25 18-13 30-31 30-61 0-31-8-50-18-62-11-12-25-18-42-20-31-5-65 5-82 9-1 1-3 1-4 1-2 1-3 2-5 2z" horiz-adv-x="1000" />

<glyph glyph-name="ld+r-ofer's-skull" unicode="&#xe812;" d="M500 735l0 0 0 0c85 4 250-28 323-179v-192c-3-4-7-9-10-15-3-7-7-16-10-24-6-17-11-36-11-48v-1l0-2c5-19 5-38 2-54-1-8-3-15-5-20-2-5-4-8-5-9-5-6-20-21-40-34-20-14-44-26-67-26-14 0-22-10-27-19-5-10-9-23-11-36-4-24-4-51-4-60l0-1 1-1c0-1 0-2-2-5-2-3-7-6-17-10-19-8-55-14-117-14-67 4-103 10-121 17-10 3-13 6-14 8-1 1-1 2-1 4l1 1 0 1c0 9 0 36-4 60-2 13-6 26-11 36-5 9-13 19-27 19-23 0-47 12-67 26-20 13-35 28-40 34-1 1-3 4-5 9-2 5-4 12-5 20-3 16-3 35 2 54l0 2v1c0 12-5 31-11 48-3 8-6 17-10 24-3 6-6 11-10 15v192c73 151 238 183 323 179z m0-447c-2 0-4 0-7-2-1-1-2-2-3-3-2-2-4-5-6-8-3-4-7-10-10-16-8-13-16-29-23-45-7-16-13-33-14-48-1-7-1-14 2-20 3-7 9-13 17-15 10-2 18-2 26 1 8 3 13 8 17 13 1 1 1 2 2 2 0 0 0 0 1-1 4-5 9-9 17-11 7-2 15-2 24 0 8 2 14 7 17 14 3 6 3 14 2 21-1 13-7 30-14 46-7 16-16 31-23 44-4 6-7 11-10 15-2 3-4 6-7 8 0 1-1 2-2 3-3 2-5 2-6 2z m-167-84c29 0 60 15 84 35 23 21 41 50 41 80 0 27-8 56-24 77-16 22-40 37-69 37-30 0-58-15-79-36-21-21-36-49-36-78 0-28 6-56 19-77 13-22 34-38 64-38z m230 115c0-30 18-59 41-80 23-20 54-35 84-35 30 0 51 16 64 38 13 21 19 49 19 77 0 29-15 57-36 78-21 21-49 36-79 36-30 0-53-15-69-37-16-21-24-50-24-77z" horiz-adv-x="1000" />

<glyph glyph-name="ld+r-ofer's-slimeburger" unicode="&#xe813;" d="M242 160l1-3c4-11 7-23 7-36 0-8-1-18-2-27l0-1c-2-17-4-35-2-49 1-6 2-11 5-13 1-2 4-4 9-4 5 0 7 1 8 2 1 1 3 3 4 6 2 7 2 16 1 27l0 1c0 7 0 14 1 21 1 3 2 7 5 10 3 4 8 6 13 6 6 0 10-3 14-6 4-3 6-7 9-11 4-9 8-20 10-31 6-23 8-50 8-67 0-7 1-13 2-17 1-4 2-6 3-7l0 0c1 0 3-2 12 2 1 1 2 2 2 2 0 1 1 1 1 3 1 4 1 10 0 22-2 22-4 56 1 111l1 4 2 2c13 13 30 17 44 14 14-4 26-15 26-31m-185 70l185-70c0 0 0 0 0 0m-185 70l-2 2c-26 22-42 55-42 92 0 13 10 23 23 23h558c13 0 23-10 23-23 0-68-55-123-123-123h-200-10v-10c0-14-4-23-8-28-4-5-9-8-15-9-5-1-11 0-15 2-2 1-3 2-3 3-1 0-1 0-1 1 0 0 0 0 0 0m-185 70l185-70c0 0 0 0 0 0m-158 380l-3 5h-6c-9 0-17 1-23 3-6 2-9 3-11 5 1 1 2 2 5 2h242c-44-2-88-6-120-10l-1 0-2-1c-11-5-30-11-47-12-8-1-16-1-22 1-6 1-9 4-12 7z m354 15h159c-1 0-2 0-3-1-2-1-4-1-8-2 0 0 0-1-1-1-9-2-24-7-30-23-1-4-4-7-12-10-8-2-18-3-29-2-11 2-21 4-29 9-8 4-13 9-14 13-2 4-5 7-8 9-3 3-6 4-10 5-4 2-9 3-15 3z m-269 250h240v-62c0-23 18-42 41-42 23 0 42 19 42 42v-63c0-23 19-41 42-41 23 0 41 18 41 41v75c26-27 42-65 42-106v-31h-604v31c0 87 70 156 156 156z m-135-375c0 23 18 42 41 42h480c23 0 41-19 41-42 0-23-18-41-41-41h-480c-23 0-41 18-41 41z" horiz-adv-x="1000" />

<glyph glyph-name="ld+r-ofer's-snake-eatself" unicode="&#xe814;" d="M917 600c52-98 75-229 52-337-23-109-84-205-171-273-88-68-197-103-307-98-111 5-217 49-298 124-82 75-134 176-148 286-13 110 12 221 73 314 60 93 151 161 257 193 106 32 220 26 322-19l-89-204c-53 23-113 26-168 10-56-17-104-53-135-102-32-48-45-107-38-164 7-58 34-111 77-150 43-39 98-62 156-65 58-2 115 16 161 51 46 36 78 87 90 143 12 57 3 116-24 167l190 124z m-190 0h190l8-125-198 3v122z m169 52c0-11-1-21-3-31h-185v-122c-71 14-125 78-125 153 0 86 70 156 157 156 86 0 156-70 156-156z m-125 11c23 0 42 18 42 41 0 23-19 42-42 42-23 0-42-19-42-42 0-23 19-41 42-41z" horiz-adv-x="1000" />

<glyph glyph-name="ld+r-ofer's-split-skull" unicode="&#xe815;" d="M323 17v10h-10-42c-63 0-115 51-115 115v282c0 172 140 311 312 311 12 0 22-9 22-21v-843c0-6-5-11-11-11h-62c-52 0-94 42-94 94v63z m385 10h-10v-10-63c0-52-42-94-94-94h-62c-6 0-11 5-11 11v843c0 12 10 21 22 21 172 0 312-139 312-311v-282c0-64-52-115-115-115h-42z m-364 104c57 0 104 47 104 104 0 58-47 105-104 105-58 0-104-47-104-105 0-57 46-104 104-104z m229 104c0-57 47-104 104-104 58 0 104 47 104 104 0 58-46 105-104 105-57 0-104-47-104-105z" horiz-adv-x="1000" />

<glyph glyph-name="ld+r-ofer's-zippo" unicode="&#xe816;" d="M188 350c0 23 18 42 41 42h417c23 0 42-19 42-42v-396c0-23-19-42-42-42h-417c-23 0-41 19-41 42v396z m458 438h104c35 0 63-28 63-63v-271c0-34-28-62-63-62h-104v396z m-177-240c0-63-29-115-52-115-23 0-52 52-52 115 0 63 29 115 52 115 23 0 52-52 52-115z" horiz-adv-x="1000" />

<glyph glyph-name="ld+r-michael's-apocalipse-tourist" unicode="&#xe817;" d="M493 709c4 7 14 7 18 0l9 6-9-6 180-312c4-7-1-16-9-16h-361c-8 0-13 9-9 16l181 312z m9-276c43 0 78 35 78 79 0 43-35 78-78 78-44 0-79-35-79-78 0-44 35-79 79-79z m-407-427l189 334h435l189-334c4-7-1-15-9-15h-795c-8 0-13 8-9 15z" horiz-adv-x="1000" />

<glyph glyph-name="ld+r-michael's-barn" unicode="&#xe818;" d="M878 498h-307v-59h-139v59h-307v-554h258v198h237v-198h258v554z m-416 248l-169-60-168-158v-20h307v60h139v-60h307v20l-169 158-168 60h-40-39z" horiz-adv-x="1000" />

<glyph glyph-name="ld+r-michael's-blood-like" unicode="&#xe819;" d="M668 538l2-3 3-2c12-5 26-19 39-41 13-22 25-50 35-83l2-8h8 128v-396h-135-4l-3-2-90-81h-434c-35 0-63 28-63 62v32c0 17 14 31 32 31v10 11h-11c-34 0-62 28-62 62v31c0 21 12 39 29 48l17 7-15 11c-19 13-31 35-31 59v11c0 34 27 62 61 62l3 21c-13 4-23 16-23 30v31c0 35 28 63 63 63h267 18l-9 15-94 157c-22 38-10 86 28 109l5 3c34 20 79 9 100-26l134-224z" horiz-adv-x="1000" />

<glyph glyph-name="ld+r-michael's-catastrophe" unicode="&#xe81a;" d="M191 49l0 1 0 0c-90 112-92 262-49 407 42 145 128 281 209 360 0 1 0 1 1 1 0 1 0 1 0 1 6-3 13-10 22-21 9-10 19-23 29-38 19-28 39-59 51-80l1-1 3-5h6 73 5l4 5 0 1c13 21 32 52 52 80 10 15 19 28 28 38 9 11 17 18 22 21 0 0 0 0 1-1 0 0 0 0 1-1 86-84 178-234 217-389 39-156 24-315-100-421l0-1-1 0c-65-76-162-123-271-123-129 0-242 66-304 166z m230 147l6 1 1 6c8 29 10 73-10 108-10 17-26 33-48 42-23 9-52 13-88 9l-7-1-2-6c-22-55-14-103 15-135 30-30 78-41 133-24z m159 5l1-5 6-2c55-17 103-6 133 25 29 31 37 80 15 134l-2 6-7 1c-36 4-65 1-88-9-22-9-38-24-48-42-20-35-18-79-10-108z" horiz-adv-x="1000" />

<glyph glyph-name="ld+r-michael's-cup-o-death" unicode="&#xe81b;" d="M115 290h0v362h635c75 0 135-60 135-135v-213c0-75-60-136-135-136h-87-6l-3-5c-46-80-143-136-255-136-159 0-284 110-284 242 0 3 0 6 0 10l0 11z m588 302h-10v-10-325-10h10 18c57 0 104 47 104 104v137c0 58-47 104-104 104h-18z" horiz-adv-x="1000" />

<glyph glyph-name="ld+r-michael's-cyborg-niple" unicode="&#xe81c;" d="M885 360c0-218-177-395-395-395-219 0-396 177-396 395 0 219 177 396 396 396 218 0 395-177 395-396z m-406-125c64 0 115 52 115 115 0 63-51 115-115 115-63 0-114-52-114-115 0-63 51-115 114-115z m31 115c0-17-14-31-31-31-17 0-31 14-31 31 0 17 14 31 31 31 17 0 31-14 31-31z" horiz-adv-x="1000" />

<glyph glyph-name="ld+r-michael's-devil-kitty" unicode="&#xe81e;" d="M116 503l4 6-6 6c-37 36-62 91-62 154 0 58 21 109 54 145l142-144 6-6 7 5c68 46 151 73 239 73 84 0 163-25 229-67l7-4 6 6 126 123c33-35 54-84 54-139 0-51-17-97-45-131l-5-5 3-6c33-61 52-131 52-204 0-236-191-428-427-428-236 0-427 192-427 428 0 67 16 131 43 188z m155-345c86 0 156 70 156 157 0 86-70 156-156 156-86 0-156-70-156-156 0-87 70-157 156-157z m437 0c87 0 157 70 157 157 0 86-70 156-157 156-86 0-156-70-156-156 0-87 70-157 156-157z" horiz-adv-x="1000" />

<glyph glyph-name="ld+r-michael's-heart" unicode="&#xe81f;" d="M484-69c9-10 24-10 32 0l376 435c-43-36-100-58-163-58-102 0-190 59-229 144-39-85-127-144-229-144-62 0-119 22-163 58l376-435z m-213 377c102 0 190 59 229 144-13 29-21 62-21 96 0 34 8 67 21 96-39 84-127 144-229 144-138 0-250-108-250-240 0-73 34-138 87-182 44-36 101-58 163-58z m250 240c0 34-8 67-21 96-13-29-21-62-21-96 0-34 8-67 21-96 13 29 21 62 21 96z m458 0c0 132-112 240-250 240-102 0-190-60-229-144 13-29 21-62 21-96 0-34-8-67-21-96 39-85 127-144 229-144 63 0 120 22 163 58 54 44 87 109 87 182z m-87-182l7-8 1 1 0 1-8 6z m-392 278l10 4-10 21-9-21 9-4z m-392-278l-8-6 0-1 1-1 7 8z m383 274c12-28 19-59 19-92h21c0 36-7 70-21 100l-19-8z m19-92c0-33-7-64-19-92l19-8c14 30 21 64 21 100h-21z m-19-100c40-89 132-150 238-150v21c-98 0-183 57-219 137l-19-8z m238-150c65 0 124 23 170 60l-13 16c-42-34-97-55-157-55v-21z m-238 158c-37-80-122-137-220-137v-21c106 0 198 61 239 150l-19 8z m19 0c-13 28-20 59-20 92h-21c0-36 8-70 22-100l19 8z m-20 92c0 33 7 64 20 92l-19 8c-14-30-22-64-22-100h21z m410-188l51 58-16 14-50-59 15-13z m-629-41c-60 0-115 21-157 55l-13-16c46-37 105-60 170-60v21z m-222 99l51-58 16 13-51 59-16-14z m435-487l16 13 0 0-16-13z m32 0l-16 13 0 0 16-13z m376 435l-13 17-1-2-1-1 15-14z m-392 278l-19-9 19-41 19 41-19 9z m-392-278l15 14-1 1-1 2-13-17z m361-449c16-19 46-19 63 0l-32 27h0l-31-27z m260 850c128 0 229-99 229-219h42c0 145-122 260-271 260v-41z m-687-219c0 120 101 219 229 219v41c-149 0-271-115-271-260h42z m864-198c57 48 94 119 94 198h-42c0-66-30-125-79-165l27-33z m-177 458c-110 0-206-63-248-155l38-18c35 77 116 132 210 132v41z m-458-41c94 0 175-55 210-132l38 18c-42 92-138 155-248 155v-41z m261-850l376 436-31 27-377-436 32-27z m-440 436l377-436 31 27-377 436-31-27z m29 30c-49 40-79 99-79 165h-42c0-79 37-150 94-198l27 33z" horiz-adv-x="1000" />

<glyph glyph-name="ld+r-michael's-here-be-pirates" unicode="&#xe820;" d="M188 704l0 0 0 0 0 0z m641 0l0 0 0 0 0 0z m59-658c-15 0-30-6-40-15l-129 148c52 52 85 125 85 204 0 59-16 113-48 159l98 112c11-8 25-14 40-14 35 0 62 27 62 62 0 36-27 63-62 63-9 0-17-2-25-5 0 3 0 5 0 5 0 35-29 64-65 64-35 0-64-29-64-64 0-21 8-38 23-50l-82-94c-50 35-112 58-181 58-62 0-119-19-167-48l-73 86c11 8 19 27 19 48 0 35-29 64-64 64-36 0-65-29-65-64 0-2 0-5 0-5-8 3-17 5-25 5-35 0-62-27-62-63 0-35 27-62 62-62 15 0 29 6 40 14l85-98c-35-48-56-108-56-171 0-85 37-160 96-214l-119-138c-11 9-25 15-40 15-35 0-62-27-62-63 0-35 27-62 62-62 9 0 17 2 25 6 0-2 0-6 0-8 0-36 27-63 63-63 35 0 62 27 62 63 0 19-8 35-21 48l94 108c29-25 81-42 138-42 73 0 133 25 156 63l112-129c-12-13-20-29-20-48 0-36 27-63 62-63 36 0 63 27 63 63 0 2 0 6 0 8 8-4 16-6 25-6 35 0 62 27 62 62-2 34-31 61-64 61z m-59 658l0 0 0 0 0 0z m-641 0l0 0 0 0 0 0z m202-419c-36 0-65 30-65 65 0 35 29 65 65 65 35 0 64-30 64-65 0-35-29-65-64-65z m216 0c-35 0-64 30-64 65 0 35 29 65 64 65 36 0 65-30 65-65 0-35-29-65-65-65z" horiz-adv-x="1000" />

<glyph glyph-name="ld+r-michael's-cycloborgps" unicode="&#xe824;" d="M500 829c-229 0-417-214-417-479s188-479 417-479 417 214 417 479-188 479-417 479z m104-771h-208v42h208v-42z m115 250h-438c-29 0-52 23-52 52s23 53 52 53h438c29 0 52-23 52-53s-23-52-52-52z" horiz-adv-x="1000" />
</font>
</defs>
</svg>
