<svg width="48" height="48" viewBox="0 0 48 48" fill="none" xmlns="http://www.w3.org/2000/svg">
<path fill-rule="evenodd" clip-rule="evenodd" d="M4 0H40.9386C43.086 0 44.8268 1.74084 44.8268 3.88827V36.9386C44.8268 39.086 43.086 40.8268 40.9386 40.8268L13.7207 40.8268V47.6313C13.3967 48.1173 12.7486 48.5061 12.7486 46.1732C12.7486 43.8402 12.4246 43.257 12.2626 43.257C12.1095 43.5632 11.8116 43.4643 11.7794 40.8268L10.8045 40.8268V47.6313C10.3184 47.7933 9.34637 47.6313 9.34637 45.6872C9.34637 44.6838 9.42923 43.9289 9.49231 43.3543C9.58201 42.5371 9.63173 42.0842 9.34637 41.7989C9.18944 41.642 8.93118 41.6877 8.63701 41.7398C8.07323 41.8397 7.37759 41.9629 7.01076 40.7274C5.28595 40.3295 4 38.7842 4 36.9386V0ZM14.2067 17.4972C16.6226 17.4972 18.581 15.5388 18.581 13.1229C18.581 10.707 16.6226 8.74861 14.2067 8.74861C11.7908 8.74861 9.8324 10.707 9.8324 13.1229C9.8324 15.5388 11.7908 17.4972 14.2067 17.4972ZM33.6481 17.4972C36.0639 17.4972 38.0224 15.5388 38.0224 13.1229C38.0224 10.707 36.0639 8.74861 33.6481 8.74861C31.2322 8.74861 29.2738 10.707 29.2738 13.1229C29.2738 15.5388 31.2322 17.4972 33.6481 17.4972Z" fill="white"/>
</svg>
